<?xml version="1.0" encoding="utf-8"?>
<!-- Generator: Adobe Illustrator 26.2.1, SVG Export Plug-In . SVG Version: 6.00 Build 0)  -->
<svg version="1.1" id="图层_1" xmlns="http://www.w3.org/2000/svg" xmlns:xlink="http://www.w3.org/1999/xlink" x="0px" y="0px"
	 viewBox="0 0 108 108" style="enable-background:new 0 0 108 108;" xml:space="preserve">
<style type="text/css">
	.st0{fill:#39C5BB;}
	.st1{fill:#FFFFFF;}
</style>
<g>
	<path class="st0" d="M108,93c0,8.2-6.8,15-15,15H15c-8.2,0-15-6.8-15-15V15C0,6.8,6.8,0,15,0h78c8.2,0,15,6.8,15,15V93z"/>
</g>
<path class="st1" d="M54.9,93l-9.5-9.4c-0.8,0.6-1.6,1.1-2.6,1.4c-1,0.3-2,0.5-3.1,0.5c-2.7,0-5-0.9-6.9-2.8S30,78.5,30,75.8
	c0-2.7,0.9-5,2.8-6.9S37,66,39.7,66s5,0.9,6.9,2.8c1.9,1.9,2.8,4.2,2.8,6.9c0,1.1-0.2,2.1-0.5,3.1c-0.3,1-0.8,1.8-1.4,2.6l9.5,9.4
	L54.9,93z M39.7,82.5c1.9,0,3.5-0.7,4.8-2c1.3-1.3,2-2.9,2-4.8c0-1.9-0.7-3.5-2-4.8c-1.3-1.3-2.9-2-4.8-2c-1.9,0-3.5,0.7-4.8,2
	c-1.3,1.3-2,2.9-2,4.8c0,1.9,0.7,3.5,2,4.8C36.3,81.8,37.8,82.5,39.7,82.5z"/>
<path class="st1" d="M65.5,15h-54v9h54V15z M65.5,33h-54v9h54V33z M11.5,60h36v-9h-36V60z M74.5,15v36.8C73.1,51.3,71.6,51,70,51
	c-7.5,0-13.5,6-13.5,13.5S62.5,78,70,78s13.5-6,13.5-13.5V24H97v-9H74.5z"/>
</svg>
